<?xml version="1.0" encoding="UTF-8"?>
<svg width="824px" height="634px" viewBox="0 0 824 634" version="1.1" xmlns="http://www.w3.org/2000/svg" xmlns:xlink="http://www.w3.org/1999/xlink">
    <title>W</title>
    <g id="Symbols" stroke="none" stroke-width="1" fill="none" fill-rule="evenodd">
        <g id="Full-Size-W" transform="translate(0.000000, -101.000000)" fill="#000000" fill-rule="nonzero">
            <g id="W" transform="translate(0.000000, 101.000000)">
                <path d="M156.786597,596.706368 L16.4763082,62.7063679 C9.458775,35.9986847 25.4207953,8.65899503 52.1284785,1.64146182 C56.2760183,0.55168184 60.5465242,1.42108547e-14 64.8348464,0 L96.0842169,0 C119.57576,0 139.899428,16.3536048 144.926128,39.3010423 L235.553406,453.02447 C235.716647,453.769683 236.376653,454.300762 237.139535,454.300762 C237.908192,454.300762 238.579,453.779545 238.768932,453.034723 L344.694241,37.6452459 C350.341787,15.498216 370.288045,6.39488462e-14 393.143803,0 L430.856197,0 C453.711955,-7.10542736e-15 473.658213,15.498216 479.305759,37.6452459 L585.231068,453.034723 C585.421,453.779545 586.091808,454.300762 586.860465,454.300762 C587.623347,454.300762 588.283353,453.769683 588.446594,453.02447 L679.073872,39.3010423 C684.100572,16.3536048 704.42424,-1.42108547e-14 727.915783,0 L759.165154,0 C786.779391,0 809.165154,22.3857625 809.165154,50 C809.165154,54.2883222 808.613472,58.5588281 807.523692,62.7063679 L667.213403,596.706368 C661.439491,618.681014 641.575409,634 618.854865,634 L567.142156,634 C544.587196,634 524.824646,618.899206 518.898722,597.136632 L413.649828,210.616855 C413.447174,209.872619 412.771334,209.356202 412,209.356202 C411.228666,209.356202 410.552826,209.872619 410.350172,210.616855 L305.101278,597.136632 C299.175354,618.899206 279.412804,634 256.857844,634 L205.145135,634 C182.424591,634 162.560509,618.681014 156.786597,596.706368 Z" id="Path"></path>
            </g>
        </g>
    </g>
</svg>